<?xml version="1.0" encoding="UTF-8"?>
<svg width="141px" height="53px" viewBox="0 0 141 53" version="1.1" xmlns="http://www.w3.org/2000/svg" xmlns:xlink="http://www.w3.org/1999/xlink">
    <!-- Generator: Sketch 53.2 (72643) - https://sketchapp.com -->
    <title>Group 6</title>
    <desc>Created with Sketch.</desc>
    <defs>
        <rect id="path-1" x="0" y="0" width="133" height="45" rx="3"></rect>
        <filter x="-5.3%" y="-11.1%" width="110.5%" height="131.1%" filterUnits="objectBoundingBox" id="filter-2">
            <feMorphology radius="1" operator="erode" in="SourceAlpha" result="shadowSpreadOuter1"></feMorphology>
            <feOffset dx="0" dy="2" in="shadowSpreadOuter1" result="shadowOffsetOuter1"></feOffset>
            <feGaussianBlur stdDeviation="3" in="shadowOffsetOuter1" result="shadowBlurOuter1"></feGaussianBlur>
            <feColorMatrix values="0 0 0 0 0   0 0 0 0 0   0 0 0 0 0  0 0 0 0.1 0" type="matrix" in="shadowBlurOuter1"></feColorMatrix>
        </filter>
    </defs>
    <g id="Page-1" stroke="none" stroke-width="1" fill="none" fill-rule="evenodd">
        <g id="Top_Tokens_MktCap" transform="translate(-243.000000, -526.000000)">
            <g id="Group-6" transform="translate(247.000000, 528.000000)">
                <g id="Rectangle" fill-rule="nonzero">
                    <use fill="black" fill-opacity="1" filter="url(#filter-2)" xlink:href="#path-1"></use>
                    <use fill="#FFFFFF" xlink:href="#path-1"></use>
                </g>
                <g id="Group-2-Copy" transform="translate(16.000000, 11.000000)">
                    <path d="M30.0696,0.914893617 C30.6536871,0.914893617 31.1132194,1.05319011 31.4482105,1.32978723 C31.7832017,1.60638436 31.9506947,1.98723162 31.9506947,2.47234043 C31.9506947,2.95744923 31.7832017,3.33829649 31.4482105,3.61489362 C31.1132194,3.89149074 30.6536871,4.02978723 30.0696,4.02978723 L28.9551158,4.02978723 L28.9551158,5.38297872 L28.3109053,5.38297872 L28.3109053,0.914893617 L30.0696,0.914893617 Z M30.0502737,3.47446809 C30.4582757,3.47446809 30.769641,3.38829873 30.9843789,3.21595745 C31.1991169,3.04361616 31.3064842,2.7957463 31.3064842,2.47234043 C31.3064842,2.14893455 31.1991169,1.90106469 30.9843789,1.7287234 C30.769641,1.55638212 30.4582757,1.47021277 30.0502737,1.47021277 L28.9551158,1.47021277 L28.9551158,3.47446809 L30.0502737,3.47446809 Z M34.9978105,5.43404255 C34.5425661,5.43404255 34.1324229,5.33510737 33.7673684,5.13723404 C33.402314,4.93936071 33.1156431,4.66595919 32.9073474,4.31702128 C32.6990516,3.96808336 32.5949053,3.57872555 32.5949053,3.14893617 C32.5949053,2.71914679 32.6990516,2.32978898 32.9073474,1.98085106 C33.1156431,1.63191315 33.402314,1.35851163 33.7673684,1.1606383 C34.1324229,0.962764968 34.5425661,0.863829787 34.9978105,0.863829787 C35.4487601,0.863829787 35.8567561,0.962764968 36.2218105,1.1606383 C36.586865,1.35851163 36.8724621,1.63084933 37.0786105,1.97765957 C37.2847589,2.32446982 37.3878316,2.71489145 37.3878316,3.14893617 C37.3878316,3.58298089 37.2847589,3.97340252 37.0786105,4.32021277 C36.8724621,4.66702301 36.586865,4.93936071 36.2218105,5.13723404 C35.8567561,5.33510737 35.4487601,5.43404255 34.9978105,5.43404255 Z M34.9978105,4.86595745 C35.3285069,4.86595745 35.6259145,4.79149011 35.8900421,4.64255319 C36.1541697,4.49361628 36.3624624,4.28829918 36.5149263,4.02659574 C36.6673902,3.76489231 36.7436211,3.47234204 36.7436211,3.14893617 C36.7436211,2.8255303 36.6673902,2.53298003 36.5149263,2.2712766 C36.3624624,2.00957316 36.1541697,1.80425606 35.8900421,1.65531915 C35.6259145,1.50638223 35.3285069,1.43191489 34.9978105,1.43191489 C34.6671141,1.43191489 34.3675592,1.50638223 34.0991368,1.65531915 C33.8307144,1.80425606 33.6202744,2.00957316 33.4678105,2.2712766 C33.3153466,2.53298003 33.2391158,2.8255303 33.2391158,3.14893617 C33.2391158,3.47234204 33.3153466,3.76489231 33.4678105,4.02659574 C33.6202744,4.28829918 33.8307144,4.49361628 34.0991368,4.64255319 C34.3675592,4.79149011 34.6671141,4.86595745 34.9978105,4.86595745 Z M44.7447158,0.914893617 L43.2372632,5.38297872 L42.5608421,5.38297872 L41.3304,1.81489362 L40.0999579,5.38297872 L39.4106526,5.38297872 L37.9032,0.914893617 L38.5667368,0.914893617 L39.7842947,4.54680851 L41.0533895,0.914893617 L41.6460632,0.914893617 L42.8893895,4.56595745 L44.1327158,0.914893617 L44.7447158,0.914893617 Z M48.8998737,4.82765957 L48.8998737,5.38297872 L45.6272842,5.38297872 L45.6272842,0.914893617 L48.8096842,0.914893617 L48.8096842,1.47021277 L46.2714947,1.47021277 L46.2714947,2.84255319 L48.5326737,2.84255319 L48.5326737,3.38510638 L46.2714947,3.38510638 L46.2714947,4.82765957 L48.8998737,4.82765957 Z M52.9584,5.38297872 L51.9856421,4.0106383 C51.8653889,4.01914898 51.7709056,4.02340426 51.7021895,4.02340426 L50.5877053,4.02340426 L50.5877053,5.38297872 L49.9434947,5.38297872 L49.9434947,0.914893617 L51.7021895,0.914893617 C52.2862766,0.914893617 52.7458089,1.05319011 53.0808,1.32978723 C53.4157911,1.60638436 53.5832842,1.98723162 53.5832842,2.47234043 C53.5832842,2.817023 53.4973903,3.11063709 53.3256,3.35319149 C53.1538097,3.59574589 52.9090121,3.77233987 52.5912,3.88297872 L53.6605895,5.38297872 L52.9584,5.38297872 Z M51.6828632,3.48085106 C52.0908652,3.48085106 52.4022305,3.39361789 52.6169684,3.21914894 C52.8317063,3.04467998 52.9390737,2.7957463 52.9390737,2.47234043 C52.9390737,2.14893455 52.8317063,1.90106469 52.6169684,1.7287234 C52.4022305,1.55638212 52.0908652,1.47021277 51.6828632,1.47021277 L50.5877053,1.47021277 L50.5877053,3.48085106 L51.6828632,3.48085106 Z M57.8994947,4.82765957 L57.8994947,5.38297872 L54.6269053,5.38297872 L54.6269053,0.914893617 L57.8093053,0.914893617 L57.8093053,1.47021277 L55.2711158,1.47021277 L55.2711158,2.84255319 L57.5322947,2.84255319 L57.5322947,3.38510638 L55.2711158,3.38510638 L55.2711158,4.82765957 L57.8994947,4.82765957 Z M58.9431158,0.914893617 L60.8435368,0.914893617 C61.320255,0.914893617 61.7432824,1.0085097 62.1126316,1.19574468 C62.4819808,1.38297966 62.7686516,1.64574299 62.9726526,1.98404255 C63.1766537,2.32234212 63.2786526,2.71063611 63.2786526,3.14893617 C63.2786526,3.58723623 63.1766537,3.97553022 62.9726526,4.31382979 C62.7686516,4.65212935 62.4819808,4.91489268 62.1126316,5.10212766 C61.7432824,5.28936264 61.320255,5.38297872 60.8435368,5.38297872 L58.9431158,5.38297872 L58.9431158,0.914893617 Z M60.8048842,4.82765957 C61.1699387,4.82765957 61.490967,4.75744751 61.7679789,4.61702128 C62.0449909,4.47659504 62.2586519,4.2797885 62.4089684,4.02659574 C62.559285,3.77340299 62.6344421,3.48085272 62.6344421,3.14893617 C62.6344421,2.81701962 62.559285,2.52446935 62.4089684,2.2712766 C62.2586519,2.01808384 62.0449909,1.8212773 61.7679789,1.68085106 C61.490967,1.54042483 61.1699387,1.47021277 60.8048842,1.47021277 L59.5873263,1.47021277 L59.5873263,4.82765957 L60.8048842,4.82765957 Z M69.0314526,3.06595745 C69.2934329,3.13829823 69.4995782,3.26914799 69.6498947,3.45851064 C69.8002113,3.64787329 69.8753684,3.8872326 69.8753684,4.17659574 C69.8753684,4.56383172 69.7282752,4.86170109 69.4340842,5.07021277 C69.1398933,5.27872445 68.7114975,5.38297872 68.1488842,5.38297872 L65.9972211,5.38297872 L65.9972211,0.914893617 L68.0200421,0.914893617 C68.5354131,0.914893617 68.933746,1.01702026 69.2150526,1.2212766 C69.4963593,1.42553294 69.6370105,1.70850883 69.6370105,2.07021277 C69.6370105,2.30425649 69.5822532,2.50638213 69.4727368,2.67659574 C69.3632205,2.84680936 69.2161272,2.9765953 69.0314526,3.06595745 Z M66.6414316,1.43191489 L66.6414316,2.86170213 L67.9620632,2.86170213 C68.2927595,2.86170213 68.5472202,2.80106444 68.7254526,2.67978723 C68.9036851,2.55851003 68.9928,2.38085223 68.9928,2.14680851 C68.9928,1.91276479 68.9036851,1.73510699 68.7254526,1.61382979 C68.5472202,1.49255259 68.2927595,1.43191489 67.9620632,1.43191489 L66.6414316,1.43191489 Z M68.1231158,4.86595745 C68.4881702,4.86595745 68.7630307,4.80638357 68.9477053,4.68723404 C69.1323799,4.56808451 69.2247158,4.38085234 69.2247158,4.12553191 C69.2247158,3.62765709 68.8575195,3.3787234 68.1231158,3.3787234 L66.6414316,3.3787234 L66.6414316,4.86595745 L68.1231158,4.86595745 Z M72.6003789,3.83829787 L72.6003789,5.38297872 L71.9626105,5.38297872 L71.9626105,3.82553191 L70.1717053,0.914893617 L70.8610105,0.914893617 L72.3040421,3.27021277 L73.7535158,0.914893617 L74.3912842,0.914893617 L72.6003789,3.83829787 Z" id="POWEREDBY" fill="#5E656E" fill-rule="nonzero"></path>
                    <g id="amberdataio_logo_color" transform="translate(0.000000, 12.535536)">
                        <path d="M16.2153654,9.07769456 C16.2108183,8.08503251 15.3452056,7.28399641 14.2822496,7.28838371 C13.7891945,7.2905066 13.3400944,7.46614013 13.0007306,7.75230533 C12.3717177,8.28444238 12.2037788,8.80143618 11.1540093,8.80554042 C10.4008611,8.80865399 10.1001475,8.56975842 9.71834425,8.1222538 C9.37640374,7.63880162 8.79195224,7.31966092 8.1285331,7.31456599 L8.11549813,7.31371683 L8.10291787,7.31371683 L8.0988255,7.31371683 L8.09503627,7.31371683 L8.08669995,7.31385836 L8.07169458,7.31484904 C7.51119104,7.32319906 7.00995113,7.55501834 6.66406982,7.9183151 C6.15585771,8.39737998 5.93153504,8.82719387 4.97482916,8.8311566 C4.16226575,8.83455322 3.87640592,8.55687957 3.44655517,8.03804594 C3.09279226,7.61063799 2.53789679,7.33678554 1.9152498,7.33919148 C0.853203208,7.34372031 -0.00467944137,8.15197422 1.92091808e-05,9.14421169 C0.00456629036,10.1358831 0.870178978,10.9367776 1.93222557,10.9325319 C2.54138288,10.9301259 3.08263711,10.6640574 3.43352021,10.2510851 C3.85685347,9.75050827 4.2545715,9.46660749 5.00817442,9.46363545 C5.82498177,9.46038036 6.14843081,9.78560668 6.60617032,10.239763 C6.95659871,10.6436777 7.49072918,10.9035191 8.08897349,10.9073403 L8.10109904,10.9070572 L8.11186047,10.9070572 L8.1156497,10.9070572 L8.11974207,10.9070572 L8.13277704,10.9070572 L8.14414474,10.9070572 C8.79013341,10.8974335 9.35745757,10.5901809 9.6987918,10.1265424 C10.0919628,9.68795387 10.4851337,9.4408498 11.1873546,9.43801928 C12.0702462,9.43448113 12.3770226,9.81504404 12.8990275,10.3255277 C13.2511232,10.670143 13.748877,10.8837055 14.2990738,10.8815826 C15.3621814,10.8773368 16.2200641,10.0690829 16.2153654,9.07769456 Z" id="rnd1" fill="#003366"></path>
                        <path d="M13.076904,5.44496895 C13.0722509,4.44653743 12.2154799,3.63978311 11.1634288,3.64420095 C10.6747031,3.6461961 10.2298066,3.8223396 9.89388271,4.11135175 C9.27096757,4.64619523 9.10435653,5.16778521 8.06506389,5.17206053 C7.26037761,5.1754808 6.97743904,4.89530433 6.55205555,4.37271678 C6.20157196,3.94304635 5.65220584,3.66728772 5.0355949,3.66985291 C3.98339366,3.67427075 3.13382746,4.48815062 3.13848056,5.48672465 C3.14298356,6.48601123 4.00020486,7.29276556 5.0524061,7.28834772 C5.65520784,7.28578252 6.19136516,7.0180045 6.53869664,6.60130257 C6.95792604,6.0980965 7.35223883,5.81221959 8.0980859,5.80908435 C8.9718182,5.80552158 9.27562067,6.18773587 9.79331569,6.70191528 C10.1424484,7.04978444 10.6349266,7.26483342 11.18024,7.26283826 C12.2324412,7.2581354 13.0815571,6.44439804 13.076904,5.44496895 Z" id="rnd2" fill="#8ABFD9"></path>
                        <path d="M9.93844326,1.81455599 C9.93397309,0.807962604 9.11059687,-0.00443131673 8.09976196,1.81906077e-05 C7.08863865,0.00446769795 6.27232818,0.824038243 6.27694254,1.8304881 C6.28141271,2.83607676 7.10478894,3.64861421 8.11605644,3.6441647 C9.12674716,3.63971519 9.94291343,2.82000112 9.93844326,1.81455599 Z" id="rnd3" fill="#F26724"></path>
                        <path d="M24.8219281,4.34329259 C25.3610503,4.80881243 25.6307692,5.51244907 25.6307692,6.45239173 L25.6307692,10.3251848 L24.1035193,10.3251848 L24.1035193,9.52074845 C23.9051362,9.81032141 23.6224758,10.0301796 23.2556959,10.1830391 C22.8889161,10.3351441 22.4471704,10.4119511 21.9298277,10.4119511 C21.4120115,10.4119511 20.9589027,10.3271465 20.5706589,10.1584427 C20.1828886,9.98928625 19.8827099,9.75403652 19.6715432,9.45284442 C19.459903,9.15210502 19.3538462,8.81198129 19.3538462,8.43262411 C19.3538462,7.83838841 19.5847407,7.36140033 20.0465298,7.00331975 C20.508319,6.64463558 21.2350923,6.46551984 22.2270078,6.46551984 L24.0129291,6.46551984 L24.0129291,6.36653086 C24.0129291,5.90463256 23.8685213,5.54956994 23.5793902,5.30224838 C23.2904169,5.05417233 22.8616127,4.93073789 22.2917151,4.93073789 C21.903787,4.93073789 21.5221718,4.98883356 21.1471851,5.10396861 C20.7718828,5.21940546 20.4549749,5.38041346 20.1963035,5.58638901 L19.5621721,4.46054021 C19.9248486,4.19646899 20.3601235,3.99502037 20.8687859,3.85468538 C21.3776062,3.71450128 21.9172019,3.64418289 22.4863104,3.64418289 C23.5036353,3.64463558 24.282648,3.87762185 24.8219281,4.34329259 Z M23.3462861,9.01961672 C23.661458,8.84291535 23.8831988,8.58955787 24.0127713,8.25924249 L24.0127713,7.49253056 L22.3436387,7.49253056 C21.4120115,7.49253056 20.9462769,7.78512147 20.9462769,8.3704542 C20.9462769,8.65172778 21.0625922,8.8741512 21.2955384,9.03923344 C21.5286425,9.20446658 21.8518633,9.2870077 22.2661478,9.2870077 C22.6712786,9.28625321 23.0315877,9.19812887 23.3462861,9.01961672 Z" id="Shape" fill="#003366" fill-rule="nonzero"></path>
                        <path d="M36.9014215,4.37584692 C37.4083233,4.8645873 37.6615385,5.59853868 37.6615385,6.57601944 L37.6615385,10.410881 L36.0506124,10.410881 L36.0506124,6.7773554 C36.0506124,6.19260972 35.9171676,5.75110762 35.6510638,5.45437785 C35.3844885,5.15795383 35.0022295,5.00966538 34.5044441,5.00966538 C33.9631201,5.00966538 33.5293065,5.18271953 33.2026889,5.52974507 C32.8760712,5.87692349 32.7129196,6.3714731 32.7129196,7.01507554 L32.7129196,10.4119511 L31.1026222,10.4119511 L31.1026222,6.7773554 C31.1026222,6.19260972 30.968863,5.75187199 30.7027592,5.4552951 C30.4361839,5.1587182 30.053925,5.01042975 29.5559824,5.01042975 C29.0058564,5.01042975 28.5699994,5.18103791 28.24794,5.52393583 C27.9255661,5.86713951 27.764615,6.36321787 27.764615,7.01599279 L27.764615,10.4119511 L26.1538462,10.4119511 L26.1538462,3.71909726 L27.6875974,3.71909726 L27.6875974,4.57137365 C27.9452135,4.27066914 28.2675873,4.04120423 28.6537758,3.88221456 C29.0404357,3.72398925 29.4700055,3.64418867 29.9426423,3.64418867 C30.4583461,3.64418867 30.9152651,3.73897097 31.3146565,3.92624247 C31.7145195,4.11412546 32.030449,4.39251027 32.2616591,4.75986814 C32.5452097,4.40917361 32.9106505,4.13537504 33.3571957,3.93862532 C33.8034264,3.74233422 34.2977539,3.64418867 34.8389207,3.64418867 C35.7070195,3.6428128 36.3943626,3.88710655 36.9014215,4.37584692 Z" id="Path" fill="#003366"></path>
                        <path d="M44.332201,3.99402851 C44.86132,4.27754691 45.2771802,4.6776466 45.5788364,5.19493797 C45.8797049,5.71268712 46.0307692,6.30871664 46.0307692,6.98424728 C46.0307692,7.65977793 45.8798624,8.25840153 45.5788364,8.78011811 C45.2771802,9.30091912 44.8614776,9.7036129 44.332201,9.98728389 C43.8027669,10.2706497 43.20229,10.4119511 42.5306129,10.4119511 C42.0569418,10.4119511 41.6246993,10.3327552 41.2327826,10.1748211 C40.8410234,10.016124 40.5116433,9.77777326 40.2449572,9.46114211 L40.2449572,10.3242099 L38.7076923,10.3242099 L38.7076923,1.04119511 L40.3221434,1.04119511 L40.3221434,4.45669147 C40.5974932,4.16478044 40.9229353,3.94321494 41.297367,3.79352089 C41.6716411,3.64352165 42.0829331,3.56814055 42.5306129,3.56814055 C43.20229,3.56859833 43.8027669,3.71081531 44.332201,3.99402851 Z M43.8158413,8.49797305 C44.1987792,8.11435344 44.390642,7.60911694 44.390642,6.98409469 C44.390642,6.35815688 44.1986217,5.85398854 43.8158413,5.47006373 C43.4325884,5.0869019 42.9439527,4.8949395 42.3496192,4.8949395 C41.9625857,4.8949395 41.6138302,4.98054435 41.3036679,5.1508385 C40.9938205,5.32189562 40.748085,5.56589234 40.5675639,5.88267608 C40.3865702,6.20022279 40.2961521,6.56720973 40.2961521,6.98485766 C40.2961521,7.4022004 40.3865702,7.76857697 40.5675639,8.08536071 C40.748085,8.40260222 40.993348,8.64675154 41.3036679,8.81780866 C41.6135152,8.98886577 41.9621131,9.07416544 42.3496192,9.07416544 C42.9439527,9.07340248 43.4325884,8.88159267 43.8158413,8.49797305 Z" id="Shape" fill="#003366" fill-rule="nonzero"></path>
                        <path d="M53.8527384,7.51678235 L48.6337017,7.51678235 C48.7254557,8.00406408 48.964259,8.38918113 49.3502635,8.67454804 C49.7367238,8.95916041 50.2160014,9.10116477 50.7888558,9.10116477 C51.5195452,9.10116477 52.1214146,8.86182479 52.5949196,8.38344663 L53.4295158,9.33597752 C53.1307078,9.69091299 52.7524507,9.95847276 52.2961116,10.1406186 C51.8396206,10.3221609 51.324796,10.4119511 50.7516377,10.4119511 C50.0206445,10.4119511 49.3769997,10.2682868 48.8205516,9.97959987 C48.2642554,9.69091299 47.8345007,9.28874334 47.5317431,8.7727891 C47.228074,8.25774032 47.0769231,7.67387751 47.0769231,7.02210614 C47.0769231,6.37863469 47.2244282,5.79975185 47.5189826,5.28394852 C47.813537,4.76844701 48.2223281,4.36612646 48.7458117,4.07759048 C49.2686876,3.7889036 49.8581002,3.64418289 50.5142016,3.64418289 C51.1616441,3.64418289 51.7404231,3.78648907 52.251298,4.07110144 C52.7624768,4.35646835 53.1607861,4.75637438 53.4472893,5.27142317 C53.7337925,5.78677377 53.8768921,6.38286012 53.8768921,7.05983312 C53.8774998,7.16682685 53.8691447,7.31879114 53.8527384,7.51678235 Z M49.2506102,5.32031734 C48.9056215,5.61353146 48.6962889,6.00317575 48.6212451,6.48985384 L52.3950054,6.48985384 C52.3284686,6.01162659 52.1247566,5.6237932 51.784629,5.32695729 C51.4434381,5.03012138 51.0205193,4.88162797 50.5143535,4.88162797 C50.016391,4.88162797 49.5949913,5.02770685 49.2506102,5.32031734 Z" id="Shape" fill="#003366" fill-rule="nonzero"></path>
                        <path d="M58.5846154,3.64418289 L58.5846154,5.13586798 C58.4577275,5.11110338 58.3434128,5.09856821 58.2408042,5.09856821 C57.6640281,5.09856821 57.2139953,5.27574212 56.8899832,5.63116001 C56.5658267,5.98673078 56.4038207,6.49853255 56.4038207,7.16702393 L56.4038207,10.4119511 L54.9230769,10.4119511 L54.9230769,3.71954677 L56.3330062,3.71954677 L56.3330062,4.6969842 C56.7597714,3.99547335 57.5102596,3.64418289 58.5846154,3.64418289 Z" id="Path" fill="#003366"></path>
                        <path d="M66.4307692,1.04119511 L66.4307692,10.323303 L64.8808692,10.323303 L64.8808692,9.46031953 C64.6141774,9.77783521 64.2846326,10.0161627 63.8930225,10.1739288 C63.5009399,10.3324578 63.0682155,10.4119511 62.5948493,10.4119511 C61.9316641,10.4119511 61.335585,10.269748 60.8061395,9.98640991 C60.2770091,9.70352952 59.86114,9.30102766 59.5594774,8.77936206 C59.2581298,8.25769645 59.1076923,7.65913133 59.1076923,6.98458215 C59.1076923,6.30820203 59.2581298,5.71223074 59.5594774,5.19498991 C59.86114,4.67790166 60.2770091,4.27768847 60.8061395,3.99419777 C61.335585,3.71070708 61.9318216,3.56835142 62.5948493,3.56835142 C63.0513602,3.56835142 63.4688045,3.64357257 63.8478125,3.793252 C64.2261904,3.94323658 64.548804,4.16890006 64.8159684,4.46947954 L64.8159684,1.04119511 L66.4307692,1.04119511 Z M63.8347378,8.81628603 C64.1445918,8.64524563 64.3900176,8.40142532 64.5705426,8.08390964 C64.7515402,7.76639395 64.8419602,7.40035833 64.8419602,6.9835141 C64.8419602,6.56605955 64.7516977,6.19895589 64.5705426,5.88159278 C64.3900176,5.56514515 64.1445918,5.32162999 63.8347378,5.1498267 C63.5245688,4.97954919 63.1758058,4.89395269 62.788449,4.89395269 C62.400462,4.89395269 62.0518566,4.97954919 61.74153,5.1498267 C61.431676,5.32101968 61.1868803,5.56483999 61.0054102,5.88159278 C60.8248852,6.19910846 60.7344651,6.56605955 60.7344651,6.9835141 C60.7344651,7.40096865 60.8248852,7.76730942 61.0054102,8.08390964 C61.1868803,8.40142532 61.431676,8.64524563 61.74153,8.81628603 C62.0520141,8.98671613 62.4006195,9.07261777 62.788449,9.07261777 C63.1759634,9.07261777 63.5245688,8.98671613 63.8347378,8.81628603 Z" id="Shape" fill="#003366" fill-rule="nonzero"></path>
                        <path d="M73.4684131,4.34329259 C74.0071567,4.80881243 74.2769231,5.51244907 74.2769231,6.45239173 L74.2769231,10.3251848 L72.7505092,10.3251848 L72.7505092,9.52074845 C72.5514598,9.81032141 72.2687497,10.0301796 71.9023788,10.1830391 C71.5360079,10.3351441 71.0933952,10.4119511 70.5759615,10.4119511 C70.0585277,10.4119511 69.6053391,10.3271465 69.2175005,10.1584427 C68.8287149,9.98928625 68.5289569,9.75403652 68.3172794,9.45284442 C68.1059177,9.15210502 68,8.81198129 68,8.43262411 C68,7.83838841 68.2306195,7.36140033 68.6928056,7.00331975 C69.1537289,6.64463558 69.8806302,6.46551984 70.8731939,6.46551984 L72.6587981,6.46551984 L72.6587981,6.36653086 C72.6587981,5.90463256 72.514365,5.54956994 72.2253408,5.30224838 C71.9366323,5.05417233 71.5069634,4.93073789 70.9377547,4.93073789 C70.5494426,4.93073789 70.1679181,4.98883356 69.7923918,5.10396861 C69.4170235,5.21940546 69.0997441,5.38041346 68.8416586,5.58638901 L68.2069419,4.46054021 C68.5695244,4.19646899 69.004876,3.99502037 69.5144172,3.85468538 C70.0234849,3.71450128 70.5622285,3.64418289 71.1314372,3.64418289 C72.1498883,3.64463558 72.9285645,3.87762185 73.4684131,4.34329259 Z M71.9931428,9.01961672 C72.3077387,8.84291535 72.5296765,8.58955787 72.6592717,8.25924249 L72.6592717,7.49253056 L70.9903189,7.49253056 C70.0580541,7.49253056 69.5920796,7.78512147 69.5920796,8.3704542 C69.5920796,8.65172778 69.7096782,8.8741512 69.9418762,9.03923344 C70.1745478,9.20446658 70.4986147,9.2870077 70.9124986,9.2870077 C71.3178586,9.28625321 71.6774419,9.19812887 71.9931428,9.01961672 Z" id="Shape" fill="#003366" fill-rule="nonzero"></path>
                        <path d="M80.0307692,9.98611804 C79.8542674,10.1276288 79.6407075,10.2341593 79.3883318,10.3055651 C79.1359562,10.3768264 78.8696654,10.4119511 78.5900455,10.4119511 C77.8852099,10.4119511 77.3409104,10.2302565 76.9564147,9.86773471 C76.572212,9.50434559 76.3794514,8.97415016 76.3794514,8.27946118 L76.3794514,5.23315024 L75.3230769,5.23315024 L75.3230769,4.04830512 L76.3794514,4.04830512 L76.3794514,2.60298778 L77.8811086,2.60298778 L77.8811086,4.04830512 L79.5979369,4.04830512 L79.5979369,5.23315024 L77.8811086,5.23315024 L77.8811086,8.24346918 C77.8811086,8.55207529 77.9574219,8.78710739 78.1096089,8.94914367 C78.2612101,9.11031267 78.4810684,9.19198127 78.7703557,9.19198127 C79.1056359,9.19198127 79.3861347,9.10510901 79.6103872,8.93121995 L80.0307692,9.98611804 Z" id="Path" fill="#003366"></path>
                        <path d="M86.5448626,4.34329259 C87.0840797,4.80881243 87.3538462,5.51244907 87.3538462,6.45239173 L87.3538462,10.3251848 L85.8274323,10.3251848 L85.8274323,9.52074845 C85.6285408,9.81032141 85.3458306,10.0301796 84.9789862,10.1830391 C84.612931,10.3351441 84.1707919,10.4119511 83.652411,10.4119511 C83.1349772,10.4119511 82.6817886,10.3271465 82.2936343,10.1584427 C81.9046908,9.98928625 81.6060378,9.75403652 81.3943603,9.45284442 C81.1829986,9.15210502 81.0769231,8.81198129 81.0769231,8.43262411 C81.0769231,7.83838841 81.3080161,7.36140033 81.7697287,7.00331975 C82.230652,6.64463558 82.9575533,6.46551984 83.9505905,6.46551984 L85.7360369,6.46551984 L85.7360369,6.36653086 C85.7360369,5.90463256 85.5919194,5.54956994 85.3028953,5.30224838 C85.0137133,5.05417233 84.5840443,4.93073789 84.0148356,4.93073789 C83.6266814,4.93073789 83.244999,4.98883356 82.8696306,5.10396861 C82.494578,5.21940546 82.176825,5.38041346 81.9187395,5.58638901 L81.2840229,4.46054021 C81.6466053,4.19646899 82.0819569,3.99502037 82.591656,3.85468538 C83.1005658,3.71450128 83.639783,3.64418289 84.2088338,3.64418289 C85.2272849,3.64463558 86.006119,3.87762185 86.5448626,4.34329259 Z M85.0695923,9.01961672 C85.3843461,8.84291535 85.6065995,8.58955787 85.7361948,8.25924249 L85.7361948,7.49253056 L84.067242,7.49253056 C83.1349772,7.49253056 82.6690027,7.78512147 82.6690027,8.3704542 C82.6690027,8.65172778 82.7866013,8.8741512 83.0192728,9.03923344 C83.2516287,9.20446658 83.5752221,9.2870077 83.9898952,9.2870077 C84.3947816,9.28625321 84.7553121,9.19812887 85.0695923,9.01961672 Z" id="Shape" fill="#003366" fill-rule="nonzero"></path>
                        <path d="M88.7062179,10.1177236 C88.5018132,9.9205009 88.4,9.6717157 88.4,9.370756 C88.4,9.06153406 88.499011,8.81106581 88.6990568,8.61889225 C88.8992582,8.42564767 89.1477198,8.32956089 89.4459982,8.32956089 C89.7445879,8.32956089 89.9935165,8.42564767 90.1927839,8.61889225 C90.393141,8.81106581 90.4923077,9.06168706 90.4923077,9.370756 C90.4923077,9.6717157 90.3903388,9.9205009 90.1860897,10.1177236 C89.9818407,10.3141813 89.7349359,10.4119511 89.4455311,10.4119511 C89.1561264,10.4119511 88.9103114,10.3141813 88.7062179,10.1177236 Z" id="Path" fill="#003366"></path>
                        <path d="M92.3622848,2.60130992 C92.1618404,2.42720714 92.0615385,2.21061501 92.0615385,1.9515335 C92.0615385,1.69245199 92.1618404,1.47660009 92.3622848,1.30264536 C92.5627292,1.12854259 92.8113312,1.04119511 93.1079315,1.04119511 C93.4042129,1.04119511 93.6521771,1.12454533 93.8530998,1.28991336 C94.0535442,1.45587357 94.1538462,1.66447119 94.1538462,1.9146699 C94.1538462,2.18174592 94.0562551,2.40633258 93.8599567,2.588874 C93.6642962,2.77141543 93.4133022,2.86201993 93.1084099,2.86201993 C92.8114907,2.86201993 92.5627292,2.77541269 92.3622848,2.60130992 Z M92.2839887,3.93017597 L93.91832,3.93017597 L93.91832,10.4119511 L92.2839887,10.4119511 L92.2839887,3.93017597 Z" id="Shape" fill="#003366" fill-rule="nonzero"></path>
                        <path d="M96.4526711,9.97871374 C95.8947673,9.69094514 95.460249,9.28879343 95.1464477,8.7728622 C94.8335883,8.25783638 94.6769231,7.67399961 94.6769231,7.0222573 C94.6769231,6.36991139 94.8335883,5.78939444 95.1464477,5.27738665 C95.460249,4.76628426 95.8949242,4.36564156 96.4526711,4.07711845 C97.010732,3.78889715 97.6367648,3.64418289 98.3324963,3.64418289 C99.0356059,3.64418289 99.6657202,3.78889715 100.224252,4.07711845 C100.78247,4.36579246 101.216203,4.76628426 101.530475,5.27738665 C101.843492,5.78939444 102,6.36991139 102,7.0222573 C102,7.67384871 101.843492,8.25693098 101.530475,8.7728622 C101.216203,9.28788802 100.781999,9.69034154 100.224252,9.97871374 C99.6661911,10.2682932 99.0356059,10.4119511 98.3324963,10.4119511 C97.6367648,10.4119511 97.0112029,10.2682932 96.4526711,9.97871374 Z M99.7996234,8.51934817 C100.18642,8.13998254 100.378876,7.64034864 100.378876,7.0222573 C100.378876,6.40326055 100.186263,5.90468297 99.7996234,5.52501553 C99.4136117,5.1461026 98.9246217,4.95626888 98.3329673,4.95626888 C97.7409989,4.95626888 97.2531078,5.1459517 96.8716484,5.52501553 C96.4901891,5.90468297 96.2993025,6.40326055 96.2993025,7.0222573 C96.2993025,7.64125405 96.4901891,8.13998254 96.8716484,8.51934817 C97.2535787,8.89871381 97.7409989,9.08839662 98.3329673,9.08839662 C98.9244647,9.08839662 99.4136117,8.89871381 99.7996234,8.51934817 Z" id="Shape" fill="#003366" fill-rule="nonzero"></path>
                    </g>
                </g>
            </g>
        </g>
    </g>
</svg>